<mxfile host="app.diagrams.net" agent="Mozilla/5.0 (Windows NT 10.0; Win64; x64) AppleWebKit/537.36 (KHTML, like Gecko) Chrome/140.0.0.0 Safari/537.36" version="28.2.5">
  <diagram name="PÃ¡gina-1" id="UjJ3qIA9mVgWxkwE-0UL">
    <mxGraphModel dx="2334" dy="667" grid="1" gridSize="10" guides="1" tooltips="1" connect="1" arrows="1" fold="1" page="1" pageScale="1" pageWidth="827" pageHeight="1169" math="0" shadow="0">
      <root>
        <mxCell id="0" />
        <mxCell id="1" parent="0" />
        <mxCell id="YZs0pG7zc2iXkdtv3Vhr-1" value="tarjetas de credito" style="rounded=1;whiteSpace=wrap;html=1;" vertex="1" parent="1">
          <mxGeometry x="70" y="270" width="120" height="60" as="geometry" />
        </mxCell>
        <mxCell id="YZs0pG7zc2iXkdtv3Vhr-2" value="numero identificador" style="ellipse;whiteSpace=wrap;html=1;" vertex="1" parent="1">
          <mxGeometry x="87" y="160" width="86" height="50" as="geometry" />
        </mxCell>
        <mxCell id="YZs0pG7zc2iXkdtv3Vhr-3" value="" style="endArrow=none;html=1;rounded=0;entryX=0.5;entryY=1;entryDx=0;entryDy=0;exitX=0.5;exitY=0;exitDx=0;exitDy=0;" edge="1" parent="1" source="YZs0pG7zc2iXkdtv3Vhr-1" target="YZs0pG7zc2iXkdtv3Vhr-2">
          <mxGeometry width="50" height="50" relative="1" as="geometry">
            <mxPoint x="133" y="280" as="sourcePoint" />
            <mxPoint x="90" y="160" as="targetPoint" />
          </mxGeometry>
        </mxCell>
        <mxCell id="YZs0pG7zc2iXkdtv3Vhr-4" value="titulares de las tarjetas" style="rounded=1;whiteSpace=wrap;html=1;" vertex="1" parent="1">
          <mxGeometry x="446" y="270" width="120" height="60" as="geometry" />
        </mxCell>
        <mxCell id="YZs0pG7zc2iXkdtv3Vhr-6" value="DNI" style="ellipse;whiteSpace=wrap;html=1;" vertex="1" parent="1">
          <mxGeometry x="463" y="150" width="86" height="50" as="geometry" />
        </mxCell>
        <mxCell id="YZs0pG7zc2iXkdtv3Vhr-7" value="" style="endArrow=none;html=1;rounded=0;entryX=0.5;entryY=1;entryDx=0;entryDy=0;exitX=0.5;exitY=0;exitDx=0;exitDy=0;" edge="1" parent="1" target="YZs0pG7zc2iXkdtv3Vhr-6" source="YZs0pG7zc2iXkdtv3Vhr-4">
          <mxGeometry width="50" height="50" relative="1" as="geometry">
            <mxPoint x="499" y="260" as="sourcePoint" />
            <mxPoint x="459" y="150" as="targetPoint" />
          </mxGeometry>
        </mxCell>
        <mxCell id="YZs0pG7zc2iXkdtv3Vhr-8" value="Domicilio" style="ellipse;whiteSpace=wrap;html=1;" vertex="1" parent="1">
          <mxGeometry x="586" y="180" width="86" height="50" as="geometry" />
        </mxCell>
        <mxCell id="YZs0pG7zc2iXkdtv3Vhr-9" value="" style="endArrow=none;html=1;rounded=0;entryX=0;entryY=1;entryDx=0;entryDy=0;exitX=0.75;exitY=0;exitDx=0;exitDy=0;" edge="1" parent="1" target="YZs0pG7zc2iXkdtv3Vhr-8" source="YZs0pG7zc2iXkdtv3Vhr-4">
          <mxGeometry width="50" height="50" relative="1" as="geometry">
            <mxPoint x="639" y="400" as="sourcePoint" />
            <mxPoint x="599" y="290" as="targetPoint" />
          </mxGeometry>
        </mxCell>
        <mxCell id="YZs0pG7zc2iXkdtv3Vhr-10" value="telefono" style="ellipse;whiteSpace=wrap;html=1;" vertex="1" parent="1">
          <mxGeometry x="696" y="275" width="86" height="50" as="geometry" />
        </mxCell>
        <mxCell id="YZs0pG7zc2iXkdtv3Vhr-11" value="" style="endArrow=none;html=1;rounded=0;entryX=0;entryY=0.5;entryDx=0;entryDy=0;exitX=1;exitY=0.5;exitDx=0;exitDy=0;" edge="1" parent="1" target="YZs0pG7zc2iXkdtv3Vhr-10" source="YZs0pG7zc2iXkdtv3Vhr-4">
          <mxGeometry width="50" height="50" relative="1" as="geometry">
            <mxPoint x="739" y="390" as="sourcePoint" />
            <mxPoint x="699" y="280" as="targetPoint" />
          </mxGeometry>
        </mxCell>
        <mxCell id="YZs0pG7zc2iXkdtv3Vhr-12" value="cuentas corrientes" style="rounded=1;whiteSpace=wrap;html=1;" vertex="1" parent="1">
          <mxGeometry x="70" y="569" width="120" height="60" as="geometry" />
        </mxCell>
        <mxCell id="YZs0pG7zc2iXkdtv3Vhr-13" value="codigo" style="ellipse;whiteSpace=wrap;html=1;" vertex="1" parent="1">
          <mxGeometry x="-70" y="574" width="86" height="50" as="geometry" />
        </mxCell>
        <mxCell id="YZs0pG7zc2iXkdtv3Vhr-14" value="" style="endArrow=none;html=1;rounded=0;entryX=1;entryY=0.5;entryDx=0;entryDy=0;exitX=0;exitY=0.5;exitDx=0;exitDy=0;" edge="1" parent="1" target="YZs0pG7zc2iXkdtv3Vhr-13" source="YZs0pG7zc2iXkdtv3Vhr-12">
          <mxGeometry width="50" height="50" relative="1" as="geometry">
            <mxPoint x="303" y="689" as="sourcePoint" />
            <mxPoint x="263" y="579" as="targetPoint" />
          </mxGeometry>
        </mxCell>
        <mxCell id="YZs0pG7zc2iXkdtv3Vhr-15" value="saldo" style="ellipse;whiteSpace=wrap;html=1;" vertex="1" parent="1">
          <mxGeometry x="230" y="669" width="86" height="50" as="geometry" />
        </mxCell>
        <mxCell id="YZs0pG7zc2iXkdtv3Vhr-16" value="" style="endArrow=none;html=1;rounded=0;entryX=0;entryY=0;entryDx=0;entryDy=0;exitX=1;exitY=1;exitDx=0;exitDy=0;" edge="1" parent="1" target="YZs0pG7zc2iXkdtv3Vhr-15" source="YZs0pG7zc2iXkdtv3Vhr-12">
          <mxGeometry width="50" height="50" relative="1" as="geometry">
            <mxPoint x="443" y="789" as="sourcePoint" />
            <mxPoint x="403" y="679" as="targetPoint" />
          </mxGeometry>
        </mxCell>
        <mxCell id="YZs0pG7zc2iXkdtv3Vhr-18" value="fecha apertura" style="ellipse;whiteSpace=wrap;html=1;" vertex="1" parent="1">
          <mxGeometry x="87" y="669" width="86" height="40" as="geometry" />
        </mxCell>
        <mxCell id="YZs0pG7zc2iXkdtv3Vhr-19" value="" style="endArrow=none;html=1;rounded=0;entryX=0.5;entryY=0;entryDx=0;entryDy=0;exitX=0.5;exitY=1;exitDx=0;exitDy=0;" edge="1" parent="1" target="YZs0pG7zc2iXkdtv3Vhr-18" source="YZs0pG7zc2iXkdtv3Vhr-12">
          <mxGeometry width="50" height="50" relative="1" as="geometry">
            <mxPoint x="130" y="779" as="sourcePoint" />
            <mxPoint x="90" y="669" as="targetPoint" />
          </mxGeometry>
        </mxCell>
        <mxCell id="YZs0pG7zc2iXkdtv3Vhr-20" value="usa" style="rhombus;whiteSpace=wrap;html=1;" vertex="1" parent="1">
          <mxGeometry x="270" y="260" width="80" height="80" as="geometry" />
        </mxCell>
        <mxCell id="YZs0pG7zc2iXkdtv3Vhr-21" value="" style="endArrow=none;html=1;rounded=0;entryX=0;entryY=0.5;entryDx=0;entryDy=0;exitX=1;exitY=0.5;exitDx=0;exitDy=0;" edge="1" parent="1" source="YZs0pG7zc2iXkdtv3Vhr-20" target="YZs0pG7zc2iXkdtv3Vhr-4">
          <mxGeometry width="50" height="50" relative="1" as="geometry">
            <mxPoint x="224" y="260" as="sourcePoint" />
            <mxPoint x="414" y="240" as="targetPoint" />
          </mxGeometry>
        </mxCell>
        <mxCell id="YZs0pG7zc2iXkdtv3Vhr-22" value="" style="endArrow=none;html=1;rounded=0;entryX=0;entryY=0.5;entryDx=0;entryDy=0;exitX=1;exitY=0.5;exitDx=0;exitDy=0;" edge="1" parent="1" source="YZs0pG7zc2iXkdtv3Vhr-1" target="YZs0pG7zc2iXkdtv3Vhr-20">
          <mxGeometry width="50" height="50" relative="1" as="geometry">
            <mxPoint x="304" y="420" as="sourcePoint" />
            <mxPoint x="394" y="280" as="targetPoint" />
          </mxGeometry>
        </mxCell>
        <mxCell id="YZs0pG7zc2iXkdtv3Vhr-23" value="1" style="text;html=1;align=center;verticalAlign=middle;resizable=0;points=[];autosize=1;strokeColor=none;fillColor=none;" vertex="1" parent="1">
          <mxGeometry x="420" y="270" width="30" height="30" as="geometry" />
        </mxCell>
        <mxCell id="YZs0pG7zc2iXkdtv3Vhr-24" value="N" style="text;html=1;align=center;verticalAlign=middle;resizable=0;points=[];autosize=1;strokeColor=none;fillColor=none;" vertex="1" parent="1">
          <mxGeometry x="190" y="270" width="30" height="30" as="geometry" />
        </mxCell>
        <mxCell id="YZs0pG7zc2iXkdtv3Vhr-25" value="tiene" style="rhombus;whiteSpace=wrap;html=1;" vertex="1" parent="1">
          <mxGeometry x="90" y="410" width="80" height="80" as="geometry" />
        </mxCell>
        <mxCell id="YZs0pG7zc2iXkdtv3Vhr-26" value="" style="endArrow=none;html=1;rounded=0;entryX=0.5;entryY=1;entryDx=0;entryDy=0;exitX=0.5;exitY=0;exitDx=0;exitDy=0;" edge="1" parent="1" source="YZs0pG7zc2iXkdtv3Vhr-25" target="YZs0pG7zc2iXkdtv3Vhr-1">
          <mxGeometry width="50" height="50" relative="1" as="geometry">
            <mxPoint x="410" y="570" as="sourcePoint" />
            <mxPoint x="460" y="520" as="targetPoint" />
          </mxGeometry>
        </mxCell>
        <mxCell id="YZs0pG7zc2iXkdtv3Vhr-27" value="" style="endArrow=none;html=1;rounded=0;entryX=0.5;entryY=1;entryDx=0;entryDy=0;exitX=0.5;exitY=0;exitDx=0;exitDy=0;" edge="1" parent="1" source="YZs0pG7zc2iXkdtv3Vhr-12" target="YZs0pG7zc2iXkdtv3Vhr-25">
          <mxGeometry width="50" height="50" relative="1" as="geometry">
            <mxPoint x="230" y="600" as="sourcePoint" />
            <mxPoint x="230" y="520" as="targetPoint" />
          </mxGeometry>
        </mxCell>
        <mxCell id="YZs0pG7zc2iXkdtv3Vhr-28" value="N" style="text;html=1;align=center;verticalAlign=middle;whiteSpace=wrap;rounded=0;" vertex="1" parent="1">
          <mxGeometry x="110" y="330" width="60" height="30" as="geometry" />
        </mxCell>
        <mxCell id="YZs0pG7zc2iXkdtv3Vhr-29" value="1" style="text;html=1;align=center;verticalAlign=middle;resizable=0;points=[];autosize=1;strokeColor=none;fillColor=none;" vertex="1" parent="1">
          <mxGeometry x="125" y="539" width="30" height="30" as="geometry" />
        </mxCell>
        <mxCell id="YZs0pG7zc2iXkdtv3Vhr-30" value="tiene" style="rhombus;whiteSpace=wrap;html=1;" vertex="1" parent="1">
          <mxGeometry x="466" y="559" width="80" height="80" as="geometry" />
        </mxCell>
        <mxCell id="YZs0pG7zc2iXkdtv3Vhr-31" value="" style="endArrow=none;html=1;rounded=0;entryX=0;entryY=0.5;entryDx=0;entryDy=0;exitX=1;exitY=0.5;exitDx=0;exitDy=0;" edge="1" parent="1" source="YZs0pG7zc2iXkdtv3Vhr-12" target="YZs0pG7zc2iXkdtv3Vhr-30">
          <mxGeometry width="50" height="50" relative="1" as="geometry">
            <mxPoint x="200" y="629" as="sourcePoint" />
            <mxPoint x="200" y="550" as="targetPoint" />
          </mxGeometry>
        </mxCell>
        <mxCell id="YZs0pG7zc2iXkdtv3Vhr-32" value="" style="endArrow=none;html=1;rounded=0;entryX=0.5;entryY=1;entryDx=0;entryDy=0;exitX=0.5;exitY=0;exitDx=0;exitDy=0;" edge="1" parent="1" source="YZs0pG7zc2iXkdtv3Vhr-30" target="YZs0pG7zc2iXkdtv3Vhr-4">
          <mxGeometry width="50" height="50" relative="1" as="geometry">
            <mxPoint x="410" y="600" as="sourcePoint" />
            <mxPoint x="690" y="600" as="targetPoint" />
          </mxGeometry>
        </mxCell>
        <mxCell id="YZs0pG7zc2iXkdtv3Vhr-33" value="N" style="text;html=1;align=center;verticalAlign=middle;resizable=0;points=[];autosize=1;strokeColor=none;fillColor=none;" vertex="1" parent="1">
          <mxGeometry x="195" y="568" width="30" height="30" as="geometry" />
        </mxCell>
        <mxCell id="YZs0pG7zc2iXkdtv3Vhr-34" value="1" style="text;html=1;align=center;verticalAlign=middle;resizable=0;points=[];autosize=1;strokeColor=none;fillColor=none;" vertex="1" parent="1">
          <mxGeometry x="500" y="330" width="30" height="30" as="geometry" />
        </mxCell>
        <mxCell id="YZs0pG7zc2iXkdtv3Vhr-35" value="tipo" style="ellipse;whiteSpace=wrap;html=1;" vertex="1" parent="1">
          <mxGeometry x="-70" y="275" width="86" height="50" as="geometry" />
        </mxCell>
        <mxCell id="YZs0pG7zc2iXkdtv3Vhr-36" value="" style="endArrow=none;html=1;rounded=0;entryX=1;entryY=0.5;entryDx=0;entryDy=0;exitX=0;exitY=0.5;exitDx=0;exitDy=0;" edge="1" parent="1" target="YZs0pG7zc2iXkdtv3Vhr-35" source="YZs0pG7zc2iXkdtv3Vhr-1">
          <mxGeometry width="50" height="50" relative="1" as="geometry">
            <mxPoint x="-27" y="385" as="sourcePoint" />
            <mxPoint x="-67" y="275" as="targetPoint" />
          </mxGeometry>
        </mxCell>
      </root>
    </mxGraphModel>
  </diagram>
</mxfile>
